<?xml version="1.0" encoding="UTF-8"?><svg xmlns="http://www.w3.org/2000/svg" xmlns:xlink="http://www.w3.org/1999/xlink" fill-opacity="1" color-rendering="auto" color-interpolation="auto" text-rendering="auto" stroke="black" stroke-linecap="square" width="1330" stroke-miterlimit="10" shape-rendering="auto" stroke-opacity="1" fill="black" stroke-dasharray="none" font-weight="normal" stroke-width="1" height="114" font-family="'Dialog'" font-style="normal" stroke-linejoin="miter" font-size="12px" stroke-dashoffset="0" image-rendering="auto">
  <!--Generated by ySVG 2.5-->
  <defs id="genericDefs"/>
  <g>
    <defs id="defs1">
      <linearGradient x1="0" gradientUnits="userSpaceOnUse" x2="160" y1="-80" y2="-20" id="linearGradient1" spreadMethod="reflect">
        <stop stop-opacity="1" stop-color="rgb(232,238,247)" offset="0%"/>
        <stop stop-opacity="1" stop-color="rgb(183,201,227)" offset="100%"/>
      </linearGradient>
      <linearGradient x1="190" gradientUnits="userSpaceOnUse" x2="350" y1="-80" y2="-20" id="linearGradient2" spreadMethod="reflect">
        <stop stop-opacity="1" stop-color="rgb(255,153,0)" offset="0%"/>
        <stop stop-opacity="1" stop-color="rgb(255,204,0)" offset="100%"/>
      </linearGradient>
      <linearGradient x1="380" gradientUnits="userSpaceOnUse" x2="540" y1="-80" y2="-20" id="linearGradient3" spreadMethod="reflect">
        <stop stop-opacity="1" stop-color="rgb(232,238,247)" offset="0%"/>
        <stop stop-opacity="1" stop-color="rgb(183,201,227)" offset="100%"/>
      </linearGradient>
      <linearGradient x1="570" gradientUnits="userSpaceOnUse" x2="730" y1="-80" y2="-20" id="linearGradient4" spreadMethod="reflect">
        <stop stop-opacity="1" stop-color="rgb(255,255,153)" offset="0%"/>
        <stop stop-opacity="1" stop-color="yellow" offset="100%"/>
      </linearGradient>
      <linearGradient x1="760" gradientUnits="userSpaceOnUse" x2="920" y1="-80" y2="-20" id="linearGradient5" spreadMethod="reflect">
        <stop stop-opacity="1" stop-color="rgb(153,204,255)" offset="0%"/>
        <stop stop-opacity="1" stop-color="rgb(0,204,255)" offset="100%"/>
      </linearGradient>
      <linearGradient x1="950" gradientUnits="userSpaceOnUse" x2="1110" y1="-80" y2="-20" id="linearGradient6" spreadMethod="reflect">
        <stop stop-opacity="1" stop-color="rgb(255,255,153)" offset="0%"/>
        <stop stop-opacity="1" stop-color="yellow" offset="100%"/>
      </linearGradient>
      <linearGradient x1="1140" gradientUnits="userSpaceOnUse" x2="1300" y1="-80" y2="-20" id="linearGradient7" spreadMethod="reflect">
        <stop stop-opacity="1" stop-color="rgb(232,238,247)" offset="0%"/>
        <stop stop-opacity="1" stop-color="rgb(183,201,227)" offset="100%"/>
      </linearGradient>
      <clipPath clipPathUnits="userSpaceOnUse" id="clipPath1">
        <path d="M0 0 L1330 0 L1330 114 L0 114 L0 0 Z"/>
      </clipPath>
      <clipPath clipPathUnits="userSpaceOnUse" id="clipPath2">
        <path d="M-15 -107 L1315 -107 L1315 7 L-15 7 L-15 -107 Z"/>
      </clipPath>
    </defs>
    <g fill="white" text-rendering="geometricPrecision" shape-rendering="geometricPrecision" transform="translate(15,107)" stroke="white">
      <rect x="-15" width="1330" height="114" y="-107" clip-path="url(#clipPath2)" stroke="none"/>
    </g>
    <g fill="url(#linearGradient1)" text-rendering="geometricPrecision" shape-rendering="geometricPrecision" transform="matrix(1,0,0,1,15,107)" stroke="url(#linearGradient1)">
      <ellipse rx="80" ry="30" clip-path="url(#clipPath2)" cx="80" cy="-50" stroke="none"/>
    </g>
    <g text-rendering="geometricPrecision" stroke-miterlimit="1.45" shape-rendering="geometricPrecision" transform="matrix(1,0,0,1,15,107)" stroke-linecap="butt">
      <ellipse rx="80" fill="none" ry="30" clip-path="url(#clipPath2)" cx="80" cy="-50"/>
      <text x="67.2148" xml:space="preserve" y="-45.8984" clip-path="url(#clipPath2)" font-family="sans-serif" stroke="none">Start</text>
    </g>
    <g fill="url(#linearGradient2)" text-rendering="geometricPrecision" shape-rendering="geometricPrecision" transform="matrix(1,0,0,1,15,107)" stroke="url(#linearGradient2)">
      <path d="M205.3 -80 L350 -80 L334.7 -20 L190 -20 Z" stroke="none" clip-path="url(#clipPath2)"/>
    </g>
    <g text-rendering="geometricPrecision" stroke-miterlimit="1.45" shape-rendering="geometricPrecision" transform="matrix(1,0,0,1,15,107)" stroke-linecap="butt">
      <path fill="none" d="M205.3 -80 L350 -80 L334.7 -20 L190 -20 Z" clip-path="url(#clipPath2)"/>
      <text x="211.0693" xml:space="preserve" y="-45.8984" clip-path="url(#clipPath2)" font-family="sans-serif" stroke="none">Read .gdextension file</text>
    </g>
    <g fill="url(#linearGradient3)" text-rendering="geometricPrecision" shape-rendering="geometricPrecision" transform="matrix(1,0,0,1,15,107)" stroke="url(#linearGradient3)">
      <path d="M380 -80 L540 -80 L540 -20 L380 -20 Z" stroke="none" clip-path="url(#clipPath2)"/>
    </g>
    <g text-rendering="geometricPrecision" stroke-miterlimit="1.45" shape-rendering="geometricPrecision" transform="matrix(1,0,0,1,15,107)" stroke-linecap="butt">
      <path fill="none" d="M380 -80 L540 -80 L540 -20 L380 -20 Z" clip-path="url(#clipPath2)"/>
      <text x="426.9824" xml:space="preserve" y="-45.8984" clip-path="url(#clipPath2)" font-family="sans-serif" stroke="none">Load Library</text>
    </g>
    <g fill="url(#linearGradient4)" text-rendering="geometricPrecision" shape-rendering="geometricPrecision" transform="matrix(1,0,0,1,15,107)" stroke="url(#linearGradient4)">
      <rect x="570" width="160" height="60" y="-80" clip-path="url(#clipPath2)" stroke="none"/>
    </g>
    <g text-rendering="geometricPrecision" stroke-miterlimit="1.45" shape-rendering="geometricPrecision" transform="matrix(1,0,0,1,15,107)" stroke-linecap="butt">
      <rect fill="none" x="570" width="160" height="60" y="-80" clip-path="url(#clipPath2)"/>
      <path fill="none" d="M580 -80 L580 -20 M720 -80 L720 -20 M580 -80 Z" clip-path="url(#clipPath2)"/>
      <text x="596.2871" xml:space="preserve" y="-45.8984" clip-path="url(#clipPath2)" font-family="sans-serif" stroke="none">Entry Point Function</text>
    </g>
    <g fill="url(#linearGradient5)" text-rendering="geometricPrecision" shape-rendering="geometricPrecision" transform="matrix(1,0,0,1,15,107)" stroke="url(#linearGradient5)">
      <rect x="760" width="160" height="60" y="-80" clip-path="url(#clipPath2)" stroke="none"/>
    </g>
    <g text-rendering="geometricPrecision" stroke-miterlimit="1.45" shape-rendering="geometricPrecision" transform="matrix(1,0,0,1,15,107)" stroke-linecap="butt">
      <rect fill="none" x="760" width="160" height="60" y="-80" clip-path="url(#clipPath2)"/>
      <path fill="none" d="M770 -80 L770 -20 M910 -80 L910 -20 M770 -80 Z" clip-path="url(#clipPath2)"/>
      <text x="804.1875" xml:space="preserve" y="-45.8984" clip-path="url(#clipPath2)" font-family="sans-serif" stroke="none">Godot Engine</text>
    </g>
    <g fill="url(#linearGradient6)" text-rendering="geometricPrecision" shape-rendering="geometricPrecision" transform="matrix(1,0,0,1,15,107)" stroke="url(#linearGradient6)">
      <path d="M950 -80 L1110 -80 L1110 -20 L950 -20 Z" stroke="none" clip-path="url(#clipPath2)"/>
    </g>
    <g text-rendering="geometricPrecision" stroke-miterlimit="1.45" shape-rendering="geometricPrecision" transform="matrix(1,0,0,1,15,107)" stroke-linecap="butt">
      <path fill="none" d="M950 -80 L1110 -80 L1110 -20 L950 -20 Z" clip-path="url(#clipPath2)"/>
      <text x="972.8711" xml:space="preserve" y="-45.8984" clip-path="url(#clipPath2)" font-family="sans-serif" stroke="none">Initialization Function</text>
    </g>
    <g fill="url(#linearGradient7)" text-rendering="geometricPrecision" shape-rendering="geometricPrecision" transform="matrix(1,0,0,1,15,107)" stroke="url(#linearGradient7)">
      <rect x="1140" y="-80" clip-path="url(#clipPath2)" width="160" rx="30" ry="30" height="60" stroke="none"/>
    </g>
    <g text-rendering="geometricPrecision" stroke-miterlimit="1.45" shape-rendering="geometricPrecision" transform="matrix(1,0,0,1,15,107)" stroke-linecap="butt">
      <rect x="1140" y="-80" clip-path="url(#clipPath2)" fill="none" width="160" rx="30" ry="30" height="60"/>
      <text x="1172.5098" xml:space="preserve" y="-45.8984" clip-path="url(#clipPath2)" font-family="sans-serif" stroke="none">Extension Loaded</text>
    </g>
    <g text-rendering="geometricPrecision" stroke-miterlimit="1.45" shape-rendering="geometricPrecision" transform="matrix(1,0,0,1,15,107)" stroke-linecap="butt">
      <path fill="none" d="M160 -50 L189.6195 -50" clip-path="url(#clipPath2)"/>
    </g>
    <g text-rendering="geometricPrecision" stroke-miterlimit="1.45" shape-rendering="geometricPrecision" transform="matrix(1,0,0,1,15,107)" stroke-linecap="butt">
      <path d="M197.6195 -50 L185.6195 -55 L188.6195 -50 L185.6195 -45 Z" stroke="none" clip-path="url(#clipPath2)"/>
      <path fill="none" d="M342.3805 -50 L371.9633 -50" clip-path="url(#clipPath2)"/>
      <path d="M379.9633 -50 L367.9633 -55 L370.9633 -50 L367.9633 -45 Z" clip-path="url(#clipPath2)" stroke="none"/>
      <path fill="none" d="M540 -50 L561.9707 -50" clip-path="url(#clipPath2)"/>
      <path d="M569.9707 -50 L557.9707 -55 L560.9707 -50 L557.9707 -45 Z" clip-path="url(#clipPath2)" stroke="none"/>
      <path fill="none" d="M730 -35 L751.9707 -35" clip-path="url(#clipPath2)"/>
      <path d="M759.9707 -35 L747.9707 -40 L750.9707 -35 L747.9707 -30 Z" clip-path="url(#clipPath2)" stroke="none"/>
      <rect x="692.082" y="-27" clip-path="url(#clipPath2)" fill="rgb(204,255,204)" width="105.8359" height="18.0625" stroke="none"/>
      <text x="694.082" xml:space="preserve" y="-13.8672" clip-path="url(#clipPath2)" font-family="sans-serif" stroke="none">register_terminator</text>
      <path fill="none" d="M730 -65 L751.9707 -65" clip-path="url(#clipPath2)"/>
      <path d="M759.9707 -65 L747.9707 -70 L750.9707 -65 L747.9707 -60 Z" clip-path="url(#clipPath2)" stroke="none"/>
      <rect x="695.9492" y="-91.0625" clip-path="url(#clipPath2)" fill="rgb(204,255,204)" width="98.1016" height="18.0625" stroke="none"/>
      <text x="697.9492" xml:space="preserve" y="-77.9297" clip-path="url(#clipPath2)" font-family="sans-serif" stroke="none">register_initializer</text>
      <path fill="none" d="M920 -50 L941.9707 -50" clip-path="url(#clipPath2)"/>
      <path d="M949.9707 -50 L937.9707 -55 L940.9707 -50 L937.9707 -45 Z" clip-path="url(#clipPath2)" stroke="none"/>
      <path fill="none" d="M1110 -50 L1131.9707 -50" clip-path="url(#clipPath2)"/>
      <path d="M1139.9707 -50 L1127.9707 -55 L1130.9707 -50 L1127.9707 -45 Z" clip-path="url(#clipPath2)" stroke="none"/>
    </g>
  </g>
</svg>
